ffmpeg started on 2026-01-10 at 17:52:08
Report written to "D:\Convert\FFMetrics\reports\psnr_report-6.txt"
Log level: 32
Command line:
ffmpeg -hide_banner -nostdin -r 24000/1001 -i "F:\\Convert\\files\\Nanatsu_no_Maken_ga_Shihai_suru_[02]_[AniLibria_TV]_[WEBRip_1080p].mkv" -r 24000/1001 -i "F:\\Convert\\files\\Nanatsu_no_Maken_ga_Shihai_suru_[02]_[AniLibria_TV]_[WEBRip_1080p].mkv" -lavfi "[0:v]settb=AVTB,setpts=PTS-STARTPTS,format=pix_fmts=yuv420p,fps=24000/1001,scale=1920:1080:flags=bicubic:out_range=limited:out_color_matrix=bt709:out_chroma_loc=left,setsar=1/1,setdar=(1920/1080)*(1/1),colorspace=format=yuv420p:range=tv:primaries=bt709:trc=bt709:space=bt709:fast=0[main];[1:v]settb=AVTB,setpts=PTS-STARTPTS,format=pix_fmts=yuv420p,fps=24000/1001,scale=1920:1080:flags=bicubic:out_range=limited:out_color_matrix=bt709:out_chroma_loc=left,setsar=1.000,setdar=1.778,colorspace=format=yuv420p:range=tv:primaries=bt709:trc=bt709:space=bt709:fast=0[ref];[main][ref]psnr=eof_action=endall:stats_file='D\\:/Convert/FFMetrics/logs/psnr_logfile-6.txt'" -f null -
Input #0, matroska,webm, from 'F:\Convert\files\Nanatsu_no_Maken_ga_Shihai_suru_[02]_[AniLibria_TV]_[WEBRip_1080p].mkv':
  Metadata:
    encoder         : libebml v1.4.4 + libmatroska v1.7.1
    creation_time   : 2023-07-15T11:47:58.000000Z
  Duration: 00:23:40.12, start: 0.000000, bitrate: 8335 kb/s
  Stream #0:0: Video: h264 (High), yuv420p(tv, bt709, progressive), 1920x1080 [SAR 1:1 DAR 16:9], 23.98 fps, 23.98 tbr, 1k tbn (default)
      Metadata:
        title           : Original
        BPS             : 7971709
        DURATION        : 00:23:40.045000000
        NUMBER_OF_FRAMES: 34047
        NUMBER_OF_BYTES : 1415023222
        _STATISTICS_WRITING_APP: mkvmerge v77.0 ('Elemental') 64-bit
        _STATISTICS_WRITING_DATE_UTC: 2023-07-15 11:47:58
        _STATISTICS_TAGS: BPS DURATION NUMBER_OF_FRAMES NUMBER_OF_BYTES
  Stream #0:1(rus): Audio: aac (LC), 48000 Hz, stereo, fltp (default)
      Metadata:
        title           : AniLibria.TV
        BPS             : 191999
        DURATION        : 00:23:40.117000000
        NUMBER_OF_FRAMES: 66568
        NUMBER_OF_BYTES : 34082731
        _STATISTICS_WRITING_APP: mkvmerge v77.0 ('Elemental') 64-bit
        _STATISTICS_WRITING_DATE_UTC: 2023-07-15 11:47:58
        _STATISTICS_TAGS: BPS DURATION NUMBER_OF_FRAMES NUMBER_OF_BYTES
  Stream #0:2(jpn): Audio: aac (LC), 44100 Hz, stereo, fltp
      Metadata:
        title           : Original
        BPS             : 128000
        DURATION        : 00:23:40.109000000
        NUMBER_OF_FRAMES: 61159
        NUMBER_OF_BYTES : 22721748
        _STATISTICS_WRITING_APP: mkvmerge v77.0 ('Elemental') 64-bit
        _STATISTICS_WRITING_DATE_UTC: 2023-07-15 11:47:58
        _STATISTICS_TAGS: BPS DURATION NUMBER_OF_FRAMES NUMBER_OF_BYTES
  Stream #0:3(rus): Subtitle: ass (ssa) (default)
      Metadata:
        title           : Надписи
        BPS             : 340
        DURATION        : 00:22:14.570000000
        NUMBER_OF_FRAMES: 381
        NUMBER_OF_BYTES : 56799
        _STATISTICS_WRITING_APP: mkvmerge v77.0 ('Elemental') 64-bit
        _STATISTICS_WRITING_DATE_UTC: 2023-07-15 11:47:58
        _STATISTICS_TAGS: BPS DURATION NUMBER_OF_FRAMES NUMBER_OF_BYTES
  Stream #0:4(rus): Subtitle: ass (ssa)
      Metadata:
        title           : Субтитры
        BPS             : 489
        DURATION        : 00:23:37.340000000
        NUMBER_OF_FRAMES: 749
        NUMBER_OF_BYTES : 86800
        _STATISTICS_WRITING_APP: mkvmerge v77.0 ('Elemental') 64-bit
        _STATISTICS_WRITING_DATE_UTC: 2023-07-15 11:47:58
        _STATISTICS_TAGS: BPS DURATION NUMBER_OF_FRAMES NUMBER_OF_BYTES
  Stream #0:5: Attachment: ttf
      Metadata:
        filename        : AGPMOD.TTF
        mimetype        : application/x-truetype-font
  Stream #0:6: Attachment: ttf
      Metadata:
        filename        : DFPSNGyosho-W5-CP-Spec.ttf
        mimetype        : application/x-truetype-font
  Stream #0:7: Attachment: ttf
      Metadata:
        filename        : Modernist One.ttf
        mimetype        : application/x-truetype-font
  Stream #0:8: Attachment: ttf
      Metadata:
        filename        : 1125177.TTF
        mimetype        : application/x-truetype-font
  Stream #0:9: Attachment: ttf
      Metadata:
        filename        : Roboto-Medium.ttf
        mimetype        : application/x-truetype-font
  Stream #0:10: Attachment: ttf
      Metadata:
        filename        : Roboto-MediumItalic.ttf
        mimetype        : application/x-truetype-font
  Stream #0:11: Attachment: ttf
      Metadata:
        filename        : arial.ttf
        mimetype        : application/x-truetype-font
  Stream #0:12: Attachment: ttf
      Metadata:
        filename        : arialbd.ttf
        mimetype        : application/x-truetype-font
  Stream #0:13: Attachment: ttf
      Metadata:
        filename        : comic.ttf
        mimetype        : application/x-truetype-font
  Stream #0:14: Attachment: ttf
      Metadata:
        filename        : comicbd.ttf
        mimetype        : application/x-truetype-font
  Stream #0:15: Attachment: ttf
      Metadata:
        filename        : times.ttf
        mimetype        : application/x-truetype-font
  Stream #0:16: Attachment: ttf
      Metadata:
        filename        : timesbd.ttf
        mimetype        : application/x-truetype-font
  Stream #0:17: Attachment: ttf
      Metadata:
        filename        : trebuc.ttf
        mimetype        : application/x-truetype-font
  Stream #0:18: Attachment: ttf
      Metadata:
        filename        : trebucbd.ttf
        mimetype        : application/x-truetype-font
  Stream #0:19: Attachment: ttf
      Metadata:
        filename        : verdana.ttf
        mimetype        : application/x-truetype-font
  Stream #0:20: Attachment: ttf
      Metadata:
        filename        : verdanab.ttf
        mimetype        : application/x-truetype-font
  Stream #0:21: Attachment: ttf
      Metadata:
        filename        : CONSOLA.TTF
        mimetype        : application/x-truetype-font
  Stream #0:22: Attachment: ttf
      Metadata:
        filename        : CONSOLAB.TTF
        mimetype        : application/x-truetype-font
Input #1, matroska,webm, from 'F:\Convert\files\Nanatsu_no_Maken_ga_Shihai_suru_[02]_[AniLibria_TV]_[WEBRip_1080p].mkv':
  Metadata:
    encoder         : libebml v1.4.4 + libmatroska v1.7.1
    creation_time   : 2023-07-15T11:47:58.000000Z
  Duration: 00:23:40.12, start: 0.000000, bitrate: 8335 kb/s
  Stream #1:0: Video: h264 (High), yuv420p(tv, bt709, progressive), 1920x1080 [SAR 1:1 DAR 16:9], 23.98 fps, 23.98 tbr, 1k tbn (default)
      Metadata:
        title           : Original
        BPS             : 7971709
        DURATION        : 00:23:40.045000000
        NUMBER_OF_FRAMES: 34047
        NUMBER_OF_BYTES : 1415023222
        _STATISTICS_WRITING_APP: mkvmerge v77.0 ('Elemental') 64-bit
        _STATISTICS_WRITING_DATE_UTC: 2023-07-15 11:47:58
        _STATISTICS_TAGS: BPS DURATION NUMBER_OF_FRAMES NUMBER_OF_BYTES
  Stream #1:1(rus): Audio: aac (LC), 48000 Hz, stereo, fltp (default)
      Metadata:
        title           : AniLibria.TV
        BPS             : 191999
        DURATION        : 00:23:40.117000000
        NUMBER_OF_FRAMES: 66568
        NUMBER_OF_BYTES : 34082731
        _STATISTICS_WRITING_APP: mkvmerge v77.0 ('Elemental') 64-bit
        _STATISTICS_WRITING_DATE_UTC: 2023-07-15 11:47:58
        _STATISTICS_TAGS: BPS DURATION NUMBER_OF_FRAMES NUMBER_OF_BYTES
  Stream #1:2(jpn): Audio: aac (LC), 44100 Hz, stereo, fltp
      Metadata:
        title           : Original
        BPS             : 128000
        DURATION        : 00:23:40.109000000
        NUMBER_OF_FRAMES: 61159
        NUMBER_OF_BYTES : 22721748
        _STATISTICS_WRITING_APP: mkvmerge v77.0 ('Elemental') 64-bit
        _STATISTICS_WRITING_DATE_UTC: 2023-07-15 11:47:58
        _STATISTICS_TAGS: BPS DURATION NUMBER_OF_FRAMES NUMBER_OF_BYTES
  Stream #1:3(rus): Subtitle: ass (ssa) (default)
      Metadata:
        title           : Надписи
        BPS             : 340
        DURATION        : 00:22:14.570000000
        NUMBER_OF_FRAMES: 381
        NUMBER_OF_BYTES : 56799
        _STATISTICS_WRITING_APP: mkvmerge v77.0 ('Elemental') 64-bit
        _STATISTICS_WRITING_DATE_UTC: 2023-07-15 11:47:58
        _STATISTICS_TAGS: BPS DURATION NUMBER_OF_FRAMES NUMBER_OF_BYTES
  Stream #1:4(rus): Subtitle: ass (ssa)
      Metadata:
        title           : Субтитры
        BPS             : 489
        DURATION        : 00:23:37.340000000
        NUMBER_OF_FRAMES: 749
        NUMBER_OF_BYTES : 86800
        _STATISTICS_WRITING_APP: mkvmerge v77.0 ('Elemental') 64-bit
        _STATISTICS_WRITING_DATE_UTC: 2023-07-15 11:47:58
        _STATISTICS_TAGS: BPS DURATION NUMBER_OF_FRAMES NUMBER_OF_BYTES
  Stream #1:5: Attachment: ttf
      Metadata:
        filename        : AGPMOD.TTF
        mimetype        : application/x-truetype-font
  Stream #1:6: Attachment: ttf
      Metadata:
        filename        : DFPSNGyosho-W5-CP-Spec.ttf
        mimetype        : application/x-truetype-font
  Stream #1:7: Attachment: ttf
      Metadata:
        filename        : Modernist One.ttf
        mimetype        : application/x-truetype-font
  Stream #1:8: Attachment: ttf
      Metadata:
        filename        : 1125177.TTF
        mimetype        : application/x-truetype-font
  Stream #1:9: Attachment: ttf
      Metadata:
        filename        : Roboto-Medium.ttf
        mimetype        : application/x-truetype-font
  Stream #1:10: Attachment: ttf
      Metadata:
        filename        : Roboto-MediumItalic.ttf
        mimetype        : application/x-truetype-font
  Stream #1:11: Attachment: ttf
      Metadata:
        filename        : arial.ttf
        mimetype        : application/x-truetype-font
  Stream #1:12: Attachment: ttf
      Metadata:
        filename        : arialbd.ttf
        mimetype        : application/x-truetype-font
  Stream #1:13: Attachment: ttf
      Metadata:
        filename        : comic.ttf
        mimetype        : application/x-truetype-font
  Stream #1:14: Attachment: ttf
      Metadata:
        filename        : comicbd.ttf
        mimetype        : application/x-truetype-font
  Stream #1:15: Attachment: ttf
      Metadata:
        filename        : times.ttf
        mimetype        : application/x-truetype-font
  Stream #1:16: Attachment: ttf
      Metadata:
        filename        : timesbd.ttf
        mimetype        : application/x-truetype-font
  Stream #1:17: Attachment: ttf
      Metadata:
        filename        : trebuc.ttf
        mimetype        : application/x-truetype-font
  Stream #1:18: Attachment: ttf
      Metadata:
        filename        : trebucbd.ttf
        mimetype        : application/x-truetype-font
  Stream #1:19: Attachment: ttf
      Metadata:
        filename        : verdana.ttf
        mimetype        : application/x-truetype-font
  Stream #1:20: Attachment: ttf
      Metadata:
        filename        : verdanab.ttf
        mimetype        : application/x-truetype-font
  Stream #1:21: Attachment: ttf
      Metadata:
        filename        : CONSOLA.TTF
        mimetype        : application/x-truetype-font
  Stream #1:22: Attachment: ttf
      Metadata:
        filename        : CONSOLAB.TTF
        mimetype        : application/x-truetype-font
Stream mapping:
  Stream #0:0 (h264) -> settb:default
  Stream #1:0 (h264) -> settb:default
  psnr:default -> Stream #0:0 (wrapped_avframe)
  Stream #0:1 -> #0:1 (aac (native) -> pcm_s16le (native))
Output #0, null, to 'pipe:':
  Metadata:
    encoder         : Lavf61.7.100
  Stream #0:0: Video: wrapped_avframe, yuv420p(tv, bt709, progressive), 1920x1080 [SAR 1:1 DAR 16:9], q=2-31, 200 kb/s, 23.98 fps, 23.98 tbn
      Metadata:
        encoder         : Lavc61.19.100 wrapped_avframe
  Stream #0:1(rus): Audio: pcm_s16le, 48000 Hz, stereo, s16, 1536 kb/s (default)
      Metadata:
        title           : AniLibria.TV
        BPS             : 191999
        DURATION        : 00:23:40.117000000
        NUMBER_OF_FRAMES: 66568
        NUMBER_OF_BYTES : 34082731
        _STATISTICS_WRITING_APP: mkvmerge v77.0 ('Elemental') 64-bit
        _STATISTICS_WRITING_DATE_UTC: 2023-07-15 11:47:58
        _STATISTICS_TAGS: BPS DURATION NUMBER_OF_FRAMES NUMBER_OF_BYTES
        encoder         : Lavc61.19.100 pcm_s16le
frame=  219 fps=0.0 q=-0.0 size=N/A time=00:00:09.13 bitrate=N/A speed=18.1x    frame=  521 fps=513 q=-0.0 size=N/A time=00:00:21.73 bitrate=N/A speed=21.4x    frame=  816 fps=529 q=-0.0 size=N/A time=00:00:34.03 bitrate=N/A speed=22.1x    frame= 1136 fps=553 q=-0.0 size=N/A time=00:00:47.38 bitrate=N/A speed=23.1x    frame= 1452 fps=564 q=-0.0 size=N/A time=00:01:00.56 bitrate=N/A speed=23.5x    frame= 1713 fps=556 q=-0.0 size=N/A time=00:01:11.44 bitrate=N/A speed=23.2x    frame= 2034 fps=564 q=-0.0 size=N/A time=00:01:24.83 bitrate=N/A speed=23.5x    frame= 2367 fps=574 q=-0.0 size=N/A time=00:01:38.72 bitrate=N/A speed=23.9x    frame= 2675 fps=577 q=-0.0 size=N/A time=00:01:51.56 bitrate=N/A speed=24.1x    frame= 2996 fps=581 q=-0.0 size=N/A time=00:02:04.95 bitrate=N/A speed=24.2x    frame= 3338 fps=590 q=-0.0 size=N/A time=00:02:19.22 bitrate=N/A speed=24.6x    frame= 3715 fps=600 q=-0.0 size=N/A time=00:02:34.94 bitrate=N/A speed=  25x    frame= 4046 fps=604 q=-0.0 size=N/A time=00:02:48.75 bitrate=N/A speed=25.2x    frame= 4362 fps=604 q=-0.0 size=N/A time=00:03:01.93 bitrate=N/A speed=25.2x    frame= 4661 fps=603 q=-0.0 size=N/A time=00:03:14.40 bitrate=N/A speed=25.2x    frame= 4923 fps=597 q=-0.0 size=N/A time=00:03:25.33 bitrate=N/A speed=24.9x    frame= 5227 fps=597 q=-0.0 size=N/A time=00:03:38.00 bitrate=N/A speed=24.9x    frame= 5494 fps=593 q=-0.0 size=N/A time=00:03:49.14 bitrate=N/A speed=24.7x    frame= 5764 fps=589 q=-0.0 size=N/A time=00:04:00.40 bitrate=N/A speed=24.6x    frame= 6047 fps=587 q=-0.0 size=N/A time=00:04:12.21 bitrate=N/A speed=24.5x    frame= 6352 fps=587 q=-0.0 size=N/A time=00:04:24.93 bitrate=N/A speed=24.5x    frame= 6663 fps=588 q=-0.0 size=N/A time=00:04:37.90 bitrate=N/A speed=24.5x    frame= 6955 fps=587 q=-0.0 size=N/A time=00:04:50.08 bitrate=N/A speed=24.5x    frame= 7260 fps=587 q=-0.0 size=N/A time=00:05:02.80 bitrate=N/A speed=24.5x    frame= 7583 fps=588 q=-0.0 size=N/A time=00:05:16.27 bitrate=N/A speed=24.5x    frame= 7910 fps=591 q=-0.0 size=N/A time=00:05:29.91 bitrate=N/A speed=24.6x    frame= 8191 fps=588 q=-0.0 size=N/A time=00:05:41.63 bitrate=N/A speed=24.5x    frame= 8495 fps=589 q=-0.0 size=N/A time=00:05:54.31 bitrate=N/A speed=24.6x    frame= 8782 fps=588 q=-0.0 size=N/A time=00:06:06.28 bitrate=N/A speed=24.5x    frame= 9100 fps=588 q=-0.0 size=N/A time=00:06:19.54 bitrate=N/A speed=24.5x    frame= 9389 fps=588 q=-0.0 size=N/A time=00:06:31.59 bitrate=N/A speed=24.5x    frame= 9651 fps=585 q=-0.0 size=N/A time=00:06:42.52 bitrate=N/A speed=24.4x    frame= 9947 fps=585 q=-0.0 size=N/A time=00:06:54.87 bitrate=N/A speed=24.4x    frame=10260 fps=586 q=-0.0 size=N/A time=00:07:07.92 bitrate=N/A speed=24.4x    frame=10593 fps=587 q=-0.0 size=N/A time=00:07:21.81 bitrate=N/A speed=24.5x    frame=10936 fps=589 q=-0.0 size=N/A time=00:07:36.12 bitrate=N/A speed=24.6x    frame=11277 fps=591 q=-0.0 size=N/A time=00:07:50.34 bitrate=N/A speed=24.6x    frame=11615 fps=593 q=-0.0 size=N/A time=00:08:04.44 bitrate=N/A speed=24.7x    frame=11915 fps=592 q=-0.0 size=N/A time=00:08:16.95 bitrate=N/A speed=24.7x    frame=12239 fps=593 q=-0.0 size=N/A time=00:08:30.46 bitrate=N/A speed=24.7x    frame=12559 fps=594 q=-0.0 size=N/A time=00:08:43.81 bitrate=N/A speed=24.8x    frame=12879 fps=594 q=-0.0 size=N/A time=00:08:57.16 bitrate=N/A speed=24.8x    frame=13151 fps=593 q=-0.0 size=N/A time=00:09:08.50 bitrate=N/A speed=24.7x    frame=13466 fps=594 q=-0.0 size=N/A time=00:09:21.64 bitrate=N/A speed=24.8x    frame=13775 fps=593 q=-0.0 size=N/A time=00:09:34.53 bitrate=N/A speed=24.8x    frame=14070 fps=593 q=-0.0 size=N/A time=00:09:46.83 bitrate=N/A speed=24.7x    frame=14399 fps=594 q=-0.0 size=N/A time=00:10:00.55 bitrate=N/A speed=24.8x    frame=14724 fps=595 q=-0.0 size=N/A time=00:10:14.11 bitrate=N/A speed=24.8x    frame=15036 fps=595 q=-0.0 size=N/A time=00:10:27.12 bitrate=N/A speed=24.8x    frame=15344 fps=595 q=-0.0 size=N/A time=00:10:39.97 bitrate=N/A speed=24.8x    frame=15671 fps=596 q=-0.0 size=N/A time=00:10:53.61 bitrate=N/A speed=24.8x    frame=15942 fps=595 q=-0.0 size=N/A time=00:11:04.91 bitrate=N/A speed=24.8x    frame=16255 fps=595 q=-0.0 size=N/A time=00:11:17.96 bitrate=N/A speed=24.8x    frame=16547 fps=594 q=-0.0 size=N/A time=00:11:30.14 bitrate=N/A speed=24.8x    frame=16847 fps=594 q=-0.0 size=N/A time=00:11:42.66 bitrate=N/A speed=24.8x    frame=17087 fps=592 q=-0.0 size=N/A time=00:11:52.67 bitrate=N/A speed=24.7x    frame=17352 fps=590 q=-0.0 size=N/A time=00:12:03.72 bitrate=N/A speed=24.6x    frame=17623 fps=589 q=-0.0 size=N/A time=00:12:15.02 bitrate=N/A speed=24.6x    frame=17897 fps=588 q=-0.0 size=N/A time=00:12:26.45 bitrate=N/A speed=24.5x    frame=18191 fps=588 q=-0.0 size=N/A time=00:12:38.71 bitrate=N/A speed=24.5x    frame=18459 fps=587 q=-0.0 size=N/A time=00:12:49.89 bitrate=N/A speed=24.5x    frame=18721 fps=585 q=-0.0 size=N/A time=00:13:00.82 bitrate=N/A speed=24.4x    frame=19024 fps=586 q=-0.0 size=N/A time=00:13:13.45 bitrate=N/A speed=24.4x    frame=19323 fps=586 q=-0.0 size=N/A time=00:13:25.93 bitrate=N/A speed=24.4x    frame=19635 fps=586 q=-0.0 size=N/A time=00:13:38.94 bitrate=N/A speed=24.4x    frame=19927 fps=585 q=-0.0 size=N/A time=00:13:51.12 bitrate=N/A speed=24.4x    frame=20236 fps=586 q=-0.0 size=N/A time=00:14:04.00 bitrate=N/A speed=24.4x    frame=20525 fps=585 q=-0.0 size=N/A time=00:14:16.06 bitrate=N/A speed=24.4x    frame=20805 fps=585 q=-0.0 size=N/A time=00:14:27.74 bitrate=N/A speed=24.4x    frame=21094 fps=584 q=-0.0 size=N/A time=00:14:39.79 bitrate=N/A speed=24.4x    frame=21381 fps=584 q=-0.0 size=N/A time=00:14:51.76 bitrate=N/A speed=24.4x    frame=21695 fps=584 q=-0.0 size=N/A time=00:15:04.86 bitrate=N/A speed=24.4x    frame=21983 fps=584 q=-0.0 size=N/A time=00:15:16.87 bitrate=N/A speed=24.4x    frame=22240 fps=583 q=-0.0 size=N/A time=00:15:27.59 bitrate=N/A speed=24.3x    frame=22559 fps=583 q=-0.0 size=N/A time=00:15:40.89 bitrate=N/A speed=24.3x    frame=22875 fps=584 q=-0.0 size=N/A time=00:15:54.07 bitrate=N/A speed=24.3x    frame=23183 fps=584 q=-0.0 size=N/A time=00:16:06.92 bitrate=N/A speed=24.4x    frame=23503 fps=584 q=-0.0 size=N/A time=00:16:20.27 bitrate=N/A speed=24.4x    frame=23821 fps=585 q=-0.0 size=N/A time=00:16:33.53 bitrate=N/A speed=24.4x    frame=24154 fps=585 q=-0.0 size=N/A time=00:16:47.42 bitrate=N/A speed=24.4x    frame=24481 fps=586 q=-0.0 size=N/A time=00:17:01.06 bitrate=N/A speed=24.4x    frame=24762 fps=586 q=-0.0 size=N/A time=00:17:12.78 bitrate=N/A speed=24.4x    frame=25004 fps=584 q=-0.0 size=N/A time=00:17:22.87 bitrate=N/A speed=24.4x    frame=25322 fps=584 q=-0.0 size=N/A time=00:17:36.13 bitrate=N/A speed=24.4x    frame=25641 fps=585 q=-0.0 size=N/A time=00:17:49.44 bitrate=N/A speed=24.4x    frame=25919 fps=584 q=-0.0 size=N/A time=00:18:01.03 bitrate=N/A speed=24.4x    frame=26208 fps=584 q=-0.0 size=N/A time=00:18:13.09 bitrate=N/A speed=24.4x    frame=26488 fps=584 q=-0.0 size=N/A time=00:18:24.77 bitrate=N/A speed=24.3x    frame=26772 fps=583 q=-0.0 size=N/A time=00:18:36.61 bitrate=N/A speed=24.3x    frame=27023 fps=582 q=-0.0 size=N/A time=00:18:47.08 bitrate=N/A speed=24.3x    frame=27311 fps=582 q=-0.0 size=N/A time=00:18:59.09 bitrate=N/A speed=24.3x    frame=27620 fps=582 q=-0.0 size=N/A time=00:19:11.98 bitrate=N/A speed=24.3x    frame=27936 fps=583 q=-0.0 size=N/A time=00:19:25.16 bitrate=N/A speed=24.3x    frame=28253 fps=583 q=-0.0 size=N/A time=00:19:38.38 bitrate=N/A speed=24.3x    frame=28566 fps=583 q=-0.0 size=N/A time=00:19:51.44 bitrate=N/A speed=24.3x    frame=28895 fps=584 q=-0.0 size=N/A time=00:20:05.16 bitrate=N/A speed=24.3x    frame=29206 fps=584 q=-0.0 size=N/A time=00:20:18.13 bitrate=N/A speed=24.4x    frame=29535 fps=584 q=-0.0 size=N/A time=00:20:31.85 bitrate=N/A speed=24.4x    frame=29865 fps=585 q=-0.0 size=N/A time=00:20:45.61 bitrate=N/A speed=24.4x    frame=30188 fps=585 q=-0.0 size=N/A time=00:20:59.09 bitrate=N/A speed=24.4x    frame=30511 fps=586 q=-0.0 size=N/A time=00:21:12.56 bitrate=N/A speed=24.4x    frame=30843 fps=586 q=-0.0 size=N/A time=00:21:26.41 bitrate=N/A speed=24.5x    frame=31169 fps=587 q=-0.0 size=N/A time=00:21:40.00 bitrate=N/A speed=24.5x    frame=31482 fps=587 q=-0.0 size=N/A time=00:21:53.06 bitrate=N/A speed=24.5x    frame=31789 fps=587 q=-0.0 size=N/A time=00:22:05.86 bitrate=N/A speed=24.5x    frame=32118 fps=588 q=-0.0 size=N/A time=00:22:19.58 bitrate=N/A speed=24.5x    frame=32447 fps=588 q=-0.0 size=N/A time=00:22:33.31 bitrate=N/A speed=24.5x    frame=32783 fps=589 q=-0.0 size=N/A time=00:22:47.32 bitrate=N/A speed=24.5x    frame=33101 fps=589 q=-0.0 size=N/A time=00:23:00.58 bitrate=N/A speed=24.6x    frame=33407 fps=589 q=-0.0 size=N/A time=00:23:13.35 bitrate=N/A speed=24.6x    frame=33741 fps=589 q=-0.0 size=N/A time=00:23:27.28 bitrate=N/A speed=24.6x    frame=34036 fps=589 q=-0.0 size=N/A time=00:23:39.58 bitrate=N/A speed=24.6x    [Parsed_psnr_16 @ 000002b346d044c0] PSNR y:inf u:inf v:inf average:inf min:inf max:inf
[out#0/null @ 000002b348eceec0] video:14630KiB audio:266272KiB subtitle:0KiB other streams:0KiB global headers:0KiB muxing overhead: unknown
frame=34047 fps=589 q=-0.0 Lsize=N/A time=00:23:40.04 bitrate=N/A speed=24.6x    
